<mxfile host="app.diagrams.net" agent="Mozilla/5.0 (Windows NT 10.0; Win64; x64) AppleWebKit/537.36 (KHTML, like Gecko) Chrome/132.0.0.0 Safari/537.36" version="26.0.6">
  <diagram name="Page-1" id="C_ZnlBmEYaxQp1rX-GWK">
    <mxGraphModel dx="1434" dy="738" grid="1" gridSize="10" guides="1" tooltips="1" connect="1" arrows="1" fold="1" page="1" pageScale="1" pageWidth="827" pageHeight="1169" math="0" shadow="0">
      <root>
        <mxCell id="0" />
        <mxCell id="1" parent="0" />
        <mxCell id="Oj5w3HKfONm3X5gUBiGD-16" value="User" style="shape=table;startSize=50;container=1;collapsible=0;childLayout=tableLayout;fontSize=13;" parent="1" vertex="1">
          <mxGeometry x="40" y="20" width="310" height="274" as="geometry" />
        </mxCell>
        <mxCell id="Oj5w3HKfONm3X5gUBiGD-17" value="" style="shape=tableRow;horizontal=0;startSize=0;swimlaneHead=0;swimlaneBody=0;strokeColor=inherit;top=0;left=0;bottom=0;right=0;collapsible=0;dropTarget=0;fillColor=none;points=[[0,0.5],[1,0.5]];portConstraint=eastwest;" parent="Oj5w3HKfONm3X5gUBiGD-16" vertex="1">
          <mxGeometry y="50" width="310" height="28" as="geometry" />
        </mxCell>
        <mxCell id="Oj5w3HKfONm3X5gUBiGD-18" value="ID" style="shape=partialRectangle;html=1;whiteSpace=wrap;connectable=0;strokeColor=inherit;overflow=hidden;fillColor=none;top=0;left=0;bottom=0;right=0;pointerEvents=1;align=left;" parent="Oj5w3HKfONm3X5gUBiGD-17" vertex="1">
          <mxGeometry width="160" height="28" as="geometry">
            <mxRectangle width="160" height="28" as="alternateBounds" />
          </mxGeometry>
        </mxCell>
        <mxCell id="Oj5w3HKfONm3X5gUBiGD-19" value="INT" style="shape=partialRectangle;html=1;whiteSpace=wrap;connectable=0;strokeColor=inherit;overflow=hidden;fillColor=none;top=0;left=0;bottom=0;right=0;pointerEvents=1;" parent="Oj5w3HKfONm3X5gUBiGD-17" vertex="1">
          <mxGeometry x="160" width="95" height="28" as="geometry">
            <mxRectangle width="95" height="28" as="alternateBounds" />
          </mxGeometry>
        </mxCell>
        <mxCell id="Oj5w3HKfONm3X5gUBiGD-20" value="PK" style="shape=partialRectangle;html=1;whiteSpace=wrap;connectable=0;strokeColor=inherit;overflow=hidden;fillColor=none;top=0;left=0;bottom=0;right=0;pointerEvents=1;" parent="Oj5w3HKfONm3X5gUBiGD-17" vertex="1">
          <mxGeometry x="255" width="55" height="28" as="geometry">
            <mxRectangle width="55" height="28" as="alternateBounds" />
          </mxGeometry>
        </mxCell>
        <mxCell id="Oj5w3HKfONm3X5gUBiGD-21" value="" style="shape=tableRow;horizontal=0;startSize=0;swimlaneHead=0;swimlaneBody=0;strokeColor=inherit;top=0;left=0;bottom=0;right=0;collapsible=0;dropTarget=0;fillColor=none;points=[[0,0.5],[1,0.5]];portConstraint=eastwest;" parent="Oj5w3HKfONm3X5gUBiGD-16" vertex="1">
          <mxGeometry y="78" width="310" height="28" as="geometry" />
        </mxCell>
        <mxCell id="Oj5w3HKfONm3X5gUBiGD-22" value="Username" style="shape=partialRectangle;html=1;whiteSpace=wrap;connectable=0;strokeColor=inherit;overflow=hidden;fillColor=none;top=0;left=0;bottom=0;right=0;pointerEvents=1;align=left;" parent="Oj5w3HKfONm3X5gUBiGD-21" vertex="1">
          <mxGeometry width="160" height="28" as="geometry">
            <mxRectangle width="160" height="28" as="alternateBounds" />
          </mxGeometry>
        </mxCell>
        <mxCell id="Oj5w3HKfONm3X5gUBiGD-23" value="VARCHAR" style="shape=partialRectangle;html=1;whiteSpace=wrap;connectable=0;strokeColor=inherit;overflow=hidden;fillColor=none;top=0;left=0;bottom=0;right=0;pointerEvents=1;" parent="Oj5w3HKfONm3X5gUBiGD-21" vertex="1">
          <mxGeometry x="160" width="95" height="28" as="geometry">
            <mxRectangle width="95" height="28" as="alternateBounds" />
          </mxGeometry>
        </mxCell>
        <mxCell id="Oj5w3HKfONm3X5gUBiGD-24" value="" style="shape=partialRectangle;html=1;whiteSpace=wrap;connectable=0;strokeColor=inherit;overflow=hidden;fillColor=none;top=0;left=0;bottom=0;right=0;pointerEvents=1;" parent="Oj5w3HKfONm3X5gUBiGD-21" vertex="1">
          <mxGeometry x="255" width="55" height="28" as="geometry">
            <mxRectangle width="55" height="28" as="alternateBounds" />
          </mxGeometry>
        </mxCell>
        <mxCell id="Oj5w3HKfONm3X5gUBiGD-25" value="" style="shape=tableRow;horizontal=0;startSize=0;swimlaneHead=0;swimlaneBody=0;strokeColor=inherit;top=0;left=0;bottom=0;right=0;collapsible=0;dropTarget=0;fillColor=none;points=[[0,0.5],[1,0.5]];portConstraint=eastwest;" parent="Oj5w3HKfONm3X5gUBiGD-16" vertex="1">
          <mxGeometry y="106" width="310" height="28" as="geometry" />
        </mxCell>
        <mxCell id="Oj5w3HKfONm3X5gUBiGD-26" value="Email" style="shape=partialRectangle;html=1;whiteSpace=wrap;connectable=0;strokeColor=inherit;overflow=hidden;fillColor=none;top=0;left=0;bottom=0;right=0;pointerEvents=1;align=left;" parent="Oj5w3HKfONm3X5gUBiGD-25" vertex="1">
          <mxGeometry width="160" height="28" as="geometry">
            <mxRectangle width="160" height="28" as="alternateBounds" />
          </mxGeometry>
        </mxCell>
        <mxCell id="Oj5w3HKfONm3X5gUBiGD-27" value="VARCHAR" style="shape=partialRectangle;html=1;whiteSpace=wrap;connectable=0;strokeColor=inherit;overflow=hidden;fillColor=none;top=0;left=0;bottom=0;right=0;pointerEvents=1;" parent="Oj5w3HKfONm3X5gUBiGD-25" vertex="1">
          <mxGeometry x="160" width="95" height="28" as="geometry">
            <mxRectangle width="95" height="28" as="alternateBounds" />
          </mxGeometry>
        </mxCell>
        <mxCell id="Oj5w3HKfONm3X5gUBiGD-28" value="" style="shape=partialRectangle;html=1;whiteSpace=wrap;connectable=0;strokeColor=inherit;overflow=hidden;fillColor=none;top=0;left=0;bottom=0;right=0;pointerEvents=1;" parent="Oj5w3HKfONm3X5gUBiGD-25" vertex="1">
          <mxGeometry x="255" width="55" height="28" as="geometry">
            <mxRectangle width="55" height="28" as="alternateBounds" />
          </mxGeometry>
        </mxCell>
        <mxCell id="Oj5w3HKfONm3X5gUBiGD-29" value="" style="shape=tableRow;horizontal=0;startSize=0;swimlaneHead=0;swimlaneBody=0;strokeColor=inherit;top=0;left=0;bottom=0;right=0;collapsible=0;dropTarget=0;fillColor=none;points=[[0,0.5],[1,0.5]];portConstraint=eastwest;" parent="Oj5w3HKfONm3X5gUBiGD-16" vertex="1">
          <mxGeometry y="134" width="310" height="28" as="geometry" />
        </mxCell>
        <mxCell id="Oj5w3HKfONm3X5gUBiGD-30" value="Password" style="shape=partialRectangle;html=1;whiteSpace=wrap;connectable=0;strokeColor=inherit;overflow=hidden;fillColor=none;top=0;left=0;bottom=0;right=0;pointerEvents=1;align=left;" parent="Oj5w3HKfONm3X5gUBiGD-29" vertex="1">
          <mxGeometry width="160" height="28" as="geometry">
            <mxRectangle width="160" height="28" as="alternateBounds" />
          </mxGeometry>
        </mxCell>
        <mxCell id="Oj5w3HKfONm3X5gUBiGD-31" value="VARCHAR" style="shape=partialRectangle;html=1;whiteSpace=wrap;connectable=0;strokeColor=inherit;overflow=hidden;fillColor=none;top=0;left=0;bottom=0;right=0;pointerEvents=1;" parent="Oj5w3HKfONm3X5gUBiGD-29" vertex="1">
          <mxGeometry x="160" width="95" height="28" as="geometry">
            <mxRectangle width="95" height="28" as="alternateBounds" />
          </mxGeometry>
        </mxCell>
        <mxCell id="Oj5w3HKfONm3X5gUBiGD-32" value="" style="shape=partialRectangle;html=1;whiteSpace=wrap;connectable=0;strokeColor=inherit;overflow=hidden;fillColor=none;top=0;left=0;bottom=0;right=0;pointerEvents=1;" parent="Oj5w3HKfONm3X5gUBiGD-29" vertex="1">
          <mxGeometry x="255" width="55" height="28" as="geometry">
            <mxRectangle width="55" height="28" as="alternateBounds" />
          </mxGeometry>
        </mxCell>
        <mxCell id="Oj5w3HKfONm3X5gUBiGD-33" value="" style="shape=tableRow;horizontal=0;startSize=0;swimlaneHead=0;swimlaneBody=0;strokeColor=inherit;top=0;left=0;bottom=0;right=0;collapsible=0;dropTarget=0;fillColor=none;points=[[0,0.5],[1,0.5]];portConstraint=eastwest;" parent="Oj5w3HKfONm3X5gUBiGD-16" vertex="1">
          <mxGeometry y="162" width="310" height="28" as="geometry" />
        </mxCell>
        <mxCell id="Oj5w3HKfONm3X5gUBiGD-34" value="JoinDate" style="shape=partialRectangle;html=1;whiteSpace=wrap;connectable=0;strokeColor=inherit;overflow=hidden;fillColor=none;top=0;left=0;bottom=0;right=0;pointerEvents=1;align=left;" parent="Oj5w3HKfONm3X5gUBiGD-33" vertex="1">
          <mxGeometry width="160" height="28" as="geometry">
            <mxRectangle width="160" height="28" as="alternateBounds" />
          </mxGeometry>
        </mxCell>
        <mxCell id="Oj5w3HKfONm3X5gUBiGD-35" value="DATETIME" style="shape=partialRectangle;html=1;whiteSpace=wrap;connectable=0;strokeColor=inherit;overflow=hidden;fillColor=none;top=0;left=0;bottom=0;right=0;pointerEvents=1;" parent="Oj5w3HKfONm3X5gUBiGD-33" vertex="1">
          <mxGeometry x="160" width="95" height="28" as="geometry">
            <mxRectangle width="95" height="28" as="alternateBounds" />
          </mxGeometry>
        </mxCell>
        <mxCell id="Oj5w3HKfONm3X5gUBiGD-36" value="" style="shape=partialRectangle;html=1;whiteSpace=wrap;connectable=0;strokeColor=inherit;overflow=hidden;fillColor=none;top=0;left=0;bottom=0;right=0;pointerEvents=1;" parent="Oj5w3HKfONm3X5gUBiGD-33" vertex="1">
          <mxGeometry x="255" width="55" height="28" as="geometry">
            <mxRectangle width="55" height="28" as="alternateBounds" />
          </mxGeometry>
        </mxCell>
        <mxCell id="Oj5w3HKfONm3X5gUBiGD-75" value="" style="rhombus;whiteSpace=wrap;html=1;fontSize=13;startSize=50;" parent="Oj5w3HKfONm3X5gUBiGD-33" vertex="1">
          <mxGeometry x="310" width="NaN" height="28" as="geometry">
            <mxRectangle width="NaN" height="28" as="alternateBounds" />
          </mxGeometry>
        </mxCell>
        <mxCell id="Oj5w3HKfONm3X5gUBiGD-37" style="shape=tableRow;horizontal=0;startSize=0;swimlaneHead=0;swimlaneBody=0;strokeColor=inherit;top=0;left=0;bottom=0;right=0;collapsible=0;dropTarget=0;fillColor=none;points=[[0,0.5],[1,0.5]];portConstraint=eastwest;" parent="Oj5w3HKfONm3X5gUBiGD-16" vertex="1">
          <mxGeometry y="190" width="310" height="28" as="geometry" />
        </mxCell>
        <mxCell id="Oj5w3HKfONm3X5gUBiGD-38" value="Level" style="shape=partialRectangle;html=1;whiteSpace=wrap;connectable=0;strokeColor=inherit;overflow=hidden;fillColor=none;top=0;left=0;bottom=0;right=0;pointerEvents=1;align=left;" parent="Oj5w3HKfONm3X5gUBiGD-37" vertex="1">
          <mxGeometry width="160" height="28" as="geometry">
            <mxRectangle width="160" height="28" as="alternateBounds" />
          </mxGeometry>
        </mxCell>
        <mxCell id="Oj5w3HKfONm3X5gUBiGD-39" value="INT" style="shape=partialRectangle;html=1;whiteSpace=wrap;connectable=0;strokeColor=inherit;overflow=hidden;fillColor=none;top=0;left=0;bottom=0;right=0;pointerEvents=1;" parent="Oj5w3HKfONm3X5gUBiGD-37" vertex="1">
          <mxGeometry x="160" width="95" height="28" as="geometry">
            <mxRectangle width="95" height="28" as="alternateBounds" />
          </mxGeometry>
        </mxCell>
        <mxCell id="Oj5w3HKfONm3X5gUBiGD-40" style="shape=partialRectangle;html=1;whiteSpace=wrap;connectable=0;strokeColor=inherit;overflow=hidden;fillColor=none;top=0;left=0;bottom=0;right=0;pointerEvents=1;" parent="Oj5w3HKfONm3X5gUBiGD-37" vertex="1">
          <mxGeometry x="255" width="55" height="28" as="geometry">
            <mxRectangle width="55" height="28" as="alternateBounds" />
          </mxGeometry>
        </mxCell>
        <mxCell id="Oj5w3HKfONm3X5gUBiGD-41" style="shape=tableRow;horizontal=0;startSize=0;swimlaneHead=0;swimlaneBody=0;strokeColor=inherit;top=0;left=0;bottom=0;right=0;collapsible=0;dropTarget=0;fillColor=none;points=[[0,0.5],[1,0.5]];portConstraint=eastwest;" parent="Oj5w3HKfONm3X5gUBiGD-16" vertex="1">
          <mxGeometry y="218" width="310" height="28" as="geometry" />
        </mxCell>
        <mxCell id="Oj5w3HKfONm3X5gUBiGD-42" value="Settings" style="shape=partialRectangle;html=1;whiteSpace=wrap;connectable=0;strokeColor=inherit;overflow=hidden;fillColor=none;top=0;left=0;bottom=0;right=0;pointerEvents=1;align=left;" parent="Oj5w3HKfONm3X5gUBiGD-41" vertex="1">
          <mxGeometry width="160" height="28" as="geometry">
            <mxRectangle width="160" height="28" as="alternateBounds" />
          </mxGeometry>
        </mxCell>
        <mxCell id="Oj5w3HKfONm3X5gUBiGD-43" value="VARCHAR" style="shape=partialRectangle;html=1;whiteSpace=wrap;connectable=0;strokeColor=inherit;overflow=hidden;fillColor=none;top=0;left=0;bottom=0;right=0;pointerEvents=1;" parent="Oj5w3HKfONm3X5gUBiGD-41" vertex="1">
          <mxGeometry x="160" width="95" height="28" as="geometry">
            <mxRectangle width="95" height="28" as="alternateBounds" />
          </mxGeometry>
        </mxCell>
        <mxCell id="Oj5w3HKfONm3X5gUBiGD-44" value="FK" style="shape=partialRectangle;html=1;whiteSpace=wrap;connectable=0;strokeColor=inherit;overflow=hidden;fillColor=none;top=0;left=0;bottom=0;right=0;pointerEvents=1;" parent="Oj5w3HKfONm3X5gUBiGD-41" vertex="1">
          <mxGeometry x="255" width="55" height="28" as="geometry">
            <mxRectangle width="55" height="28" as="alternateBounds" />
          </mxGeometry>
        </mxCell>
        <mxCell id="Oj5w3HKfONm3X5gUBiGD-95" style="shape=tableRow;horizontal=0;startSize=0;swimlaneHead=0;swimlaneBody=0;strokeColor=inherit;top=0;left=0;bottom=0;right=0;collapsible=0;dropTarget=0;fillColor=none;points=[[0,0.5],[1,0.5]];portConstraint=eastwest;" parent="Oj5w3HKfONm3X5gUBiGD-16" vertex="1">
          <mxGeometry y="246" width="310" height="28" as="geometry" />
        </mxCell>
        <mxCell id="Oj5w3HKfONm3X5gUBiGD-96" value="Stats" style="shape=partialRectangle;html=1;whiteSpace=wrap;connectable=0;strokeColor=inherit;overflow=hidden;fillColor=none;top=0;left=0;bottom=0;right=0;pointerEvents=1;align=left;" parent="Oj5w3HKfONm3X5gUBiGD-95" vertex="1">
          <mxGeometry width="160" height="28" as="geometry">
            <mxRectangle width="160" height="28" as="alternateBounds" />
          </mxGeometry>
        </mxCell>
        <mxCell id="Oj5w3HKfONm3X5gUBiGD-97" value="VARCHAR" style="shape=partialRectangle;html=1;whiteSpace=wrap;connectable=0;strokeColor=inherit;overflow=hidden;fillColor=none;top=0;left=0;bottom=0;right=0;pointerEvents=1;" parent="Oj5w3HKfONm3X5gUBiGD-95" vertex="1">
          <mxGeometry x="160" width="95" height="28" as="geometry">
            <mxRectangle width="95" height="28" as="alternateBounds" />
          </mxGeometry>
        </mxCell>
        <mxCell id="Oj5w3HKfONm3X5gUBiGD-98" value="FK" style="shape=partialRectangle;html=1;whiteSpace=wrap;connectable=0;strokeColor=inherit;overflow=hidden;fillColor=none;top=0;left=0;bottom=0;right=0;pointerEvents=1;" parent="Oj5w3HKfONm3X5gUBiGD-95" vertex="1">
          <mxGeometry x="255" width="55" height="28" as="geometry">
            <mxRectangle width="55" height="28" as="alternateBounds" />
          </mxGeometry>
        </mxCell>
        <mxCell id="Oj5w3HKfONm3X5gUBiGD-76" value="" style="edgeStyle=orthogonalEdgeStyle;rounded=0;orthogonalLoop=1;jettySize=auto;html=1;" parent="1" source="Oj5w3HKfONm3X5gUBiGD-46" target="Oj5w3HKfONm3X5gUBiGD-75" edge="1">
          <mxGeometry relative="1" as="geometry" />
        </mxCell>
        <mxCell id="Oj5w3HKfONm3X5gUBiGD-46" value="Settings" style="shape=table;startSize=50;container=1;collapsible=0;childLayout=tableLayout;fontSize=13;" parent="1" vertex="1">
          <mxGeometry x="440" y="20" width="310" height="134" as="geometry" />
        </mxCell>
        <mxCell id="Oj5w3HKfONm3X5gUBiGD-47" value="" style="shape=tableRow;horizontal=0;startSize=0;swimlaneHead=0;swimlaneBody=0;strokeColor=inherit;top=0;left=0;bottom=0;right=0;collapsible=0;dropTarget=0;fillColor=none;points=[[0,0.5],[1,0.5]];portConstraint=eastwest;" parent="Oj5w3HKfONm3X5gUBiGD-46" vertex="1">
          <mxGeometry y="50" width="310" height="28" as="geometry" />
        </mxCell>
        <mxCell id="Oj5w3HKfONm3X5gUBiGD-48" value="ID" style="shape=partialRectangle;html=1;whiteSpace=wrap;connectable=0;strokeColor=inherit;overflow=hidden;fillColor=none;top=0;left=0;bottom=0;right=0;pointerEvents=1;align=left;" parent="Oj5w3HKfONm3X5gUBiGD-47" vertex="1">
          <mxGeometry width="160" height="28" as="geometry">
            <mxRectangle width="160" height="28" as="alternateBounds" />
          </mxGeometry>
        </mxCell>
        <mxCell id="Oj5w3HKfONm3X5gUBiGD-49" value="INT" style="shape=partialRectangle;html=1;whiteSpace=wrap;connectable=0;strokeColor=inherit;overflow=hidden;fillColor=none;top=0;left=0;bottom=0;right=0;pointerEvents=1;" parent="Oj5w3HKfONm3X5gUBiGD-47" vertex="1">
          <mxGeometry x="160" width="95" height="28" as="geometry">
            <mxRectangle width="95" height="28" as="alternateBounds" />
          </mxGeometry>
        </mxCell>
        <mxCell id="Oj5w3HKfONm3X5gUBiGD-50" value="PK" style="shape=partialRectangle;html=1;whiteSpace=wrap;connectable=0;strokeColor=inherit;overflow=hidden;fillColor=none;top=0;left=0;bottom=0;right=0;pointerEvents=1;" parent="Oj5w3HKfONm3X5gUBiGD-47" vertex="1">
          <mxGeometry x="255" width="55" height="28" as="geometry">
            <mxRectangle width="55" height="28" as="alternateBounds" />
          </mxGeometry>
        </mxCell>
        <mxCell id="Oj5w3HKfONm3X5gUBiGD-51" value="" style="shape=tableRow;horizontal=0;startSize=0;swimlaneHead=0;swimlaneBody=0;strokeColor=inherit;top=0;left=0;bottom=0;right=0;collapsible=0;dropTarget=0;fillColor=none;points=[[0,0.5],[1,0.5]];portConstraint=eastwest;" parent="Oj5w3HKfONm3X5gUBiGD-46" vertex="1">
          <mxGeometry y="78" width="310" height="28" as="geometry" />
        </mxCell>
        <mxCell id="Oj5w3HKfONm3X5gUBiGD-52" value="ThemeID" style="shape=partialRectangle;html=1;whiteSpace=wrap;connectable=0;strokeColor=inherit;overflow=hidden;fillColor=none;top=0;left=0;bottom=0;right=0;pointerEvents=1;align=left;" parent="Oj5w3HKfONm3X5gUBiGD-51" vertex="1">
          <mxGeometry width="160" height="28" as="geometry">
            <mxRectangle width="160" height="28" as="alternateBounds" />
          </mxGeometry>
        </mxCell>
        <mxCell id="Oj5w3HKfONm3X5gUBiGD-53" value="INT" style="shape=partialRectangle;html=1;whiteSpace=wrap;connectable=0;strokeColor=inherit;overflow=hidden;fillColor=none;top=0;left=0;bottom=0;right=0;pointerEvents=1;" parent="Oj5w3HKfONm3X5gUBiGD-51" vertex="1">
          <mxGeometry x="160" width="95" height="28" as="geometry">
            <mxRectangle width="95" height="28" as="alternateBounds" />
          </mxGeometry>
        </mxCell>
        <mxCell id="Oj5w3HKfONm3X5gUBiGD-54" value="" style="shape=partialRectangle;html=1;whiteSpace=wrap;connectable=0;strokeColor=inherit;overflow=hidden;fillColor=none;top=0;left=0;bottom=0;right=0;pointerEvents=1;" parent="Oj5w3HKfONm3X5gUBiGD-51" vertex="1">
          <mxGeometry x="255" width="55" height="28" as="geometry">
            <mxRectangle width="55" height="28" as="alternateBounds" />
          </mxGeometry>
        </mxCell>
        <mxCell id="Oj5w3HKfONm3X5gUBiGD-78" style="shape=tableRow;horizontal=0;startSize=0;swimlaneHead=0;swimlaneBody=0;strokeColor=inherit;top=0;left=0;bottom=0;right=0;collapsible=0;dropTarget=0;fillColor=none;points=[[0,0.5],[1,0.5]];portConstraint=eastwest;" parent="Oj5w3HKfONm3X5gUBiGD-46" vertex="1">
          <mxGeometry y="106" width="310" height="28" as="geometry" />
        </mxCell>
        <mxCell id="Oj5w3HKfONm3X5gUBiGD-79" value="AccentSensitivity" style="shape=partialRectangle;html=1;whiteSpace=wrap;connectable=0;strokeColor=inherit;overflow=hidden;fillColor=none;top=0;left=0;bottom=0;right=0;pointerEvents=1;align=left;" parent="Oj5w3HKfONm3X5gUBiGD-78" vertex="1">
          <mxGeometry width="160" height="28" as="geometry">
            <mxRectangle width="160" height="28" as="alternateBounds" />
          </mxGeometry>
        </mxCell>
        <mxCell id="Oj5w3HKfONm3X5gUBiGD-80" value="BOOL" style="shape=partialRectangle;html=1;whiteSpace=wrap;connectable=0;strokeColor=inherit;overflow=hidden;fillColor=none;top=0;left=0;bottom=0;right=0;pointerEvents=1;" parent="Oj5w3HKfONm3X5gUBiGD-78" vertex="1">
          <mxGeometry x="160" width="95" height="28" as="geometry">
            <mxRectangle width="95" height="28" as="alternateBounds" />
          </mxGeometry>
        </mxCell>
        <mxCell id="Oj5w3HKfONm3X5gUBiGD-81" style="shape=partialRectangle;html=1;whiteSpace=wrap;connectable=0;strokeColor=inherit;overflow=hidden;fillColor=none;top=0;left=0;bottom=0;right=0;pointerEvents=1;" parent="Oj5w3HKfONm3X5gUBiGD-78" vertex="1">
          <mxGeometry x="255" width="55" height="28" as="geometry">
            <mxRectangle width="55" height="28" as="alternateBounds" />
          </mxGeometry>
        </mxCell>
        <mxCell id="Oj5w3HKfONm3X5gUBiGD-82" value="Stats" style="shape=table;startSize=50;container=1;collapsible=0;childLayout=tableLayout;fontSize=13;" parent="1" vertex="1">
          <mxGeometry x="40" y="340" width="310" height="134" as="geometry" />
        </mxCell>
        <mxCell id="Oj5w3HKfONm3X5gUBiGD-83" value="" style="shape=tableRow;horizontal=0;startSize=0;swimlaneHead=0;swimlaneBody=0;strokeColor=inherit;top=0;left=0;bottom=0;right=0;collapsible=0;dropTarget=0;fillColor=none;points=[[0,0.5],[1,0.5]];portConstraint=eastwest;" parent="Oj5w3HKfONm3X5gUBiGD-82" vertex="1">
          <mxGeometry y="50" width="310" height="28" as="geometry" />
        </mxCell>
        <mxCell id="Oj5w3HKfONm3X5gUBiGD-84" value="ID" style="shape=partialRectangle;html=1;whiteSpace=wrap;connectable=0;strokeColor=inherit;overflow=hidden;fillColor=none;top=0;left=0;bottom=0;right=0;pointerEvents=1;align=left;" parent="Oj5w3HKfONm3X5gUBiGD-83" vertex="1">
          <mxGeometry width="160" height="28" as="geometry">
            <mxRectangle width="160" height="28" as="alternateBounds" />
          </mxGeometry>
        </mxCell>
        <mxCell id="Oj5w3HKfONm3X5gUBiGD-85" value="INT" style="shape=partialRectangle;html=1;whiteSpace=wrap;connectable=0;strokeColor=inherit;overflow=hidden;fillColor=none;top=0;left=0;bottom=0;right=0;pointerEvents=1;" parent="Oj5w3HKfONm3X5gUBiGD-83" vertex="1">
          <mxGeometry x="160" width="95" height="28" as="geometry">
            <mxRectangle width="95" height="28" as="alternateBounds" />
          </mxGeometry>
        </mxCell>
        <mxCell id="Oj5w3HKfONm3X5gUBiGD-86" value="PK" style="shape=partialRectangle;html=1;whiteSpace=wrap;connectable=0;strokeColor=inherit;overflow=hidden;fillColor=none;top=0;left=0;bottom=0;right=0;pointerEvents=1;" parent="Oj5w3HKfONm3X5gUBiGD-83" vertex="1">
          <mxGeometry x="255" width="55" height="28" as="geometry">
            <mxRectangle width="55" height="28" as="alternateBounds" />
          </mxGeometry>
        </mxCell>
        <mxCell id="Oj5w3HKfONm3X5gUBiGD-87" value="" style="shape=tableRow;horizontal=0;startSize=0;swimlaneHead=0;swimlaneBody=0;strokeColor=inherit;top=0;left=0;bottom=0;right=0;collapsible=0;dropTarget=0;fillColor=none;points=[[0,0.5],[1,0.5]];portConstraint=eastwest;" parent="Oj5w3HKfONm3X5gUBiGD-82" vertex="1">
          <mxGeometry y="78" width="310" height="28" as="geometry" />
        </mxCell>
        <mxCell id="Oj5w3HKfONm3X5gUBiGD-88" value="VocabStats" style="shape=partialRectangle;html=1;whiteSpace=wrap;connectable=0;strokeColor=inherit;overflow=hidden;fillColor=none;top=0;left=0;bottom=0;right=0;pointerEvents=1;align=left;" parent="Oj5w3HKfONm3X5gUBiGD-87" vertex="1">
          <mxGeometry width="160" height="28" as="geometry">
            <mxRectangle width="160" height="28" as="alternateBounds" />
          </mxGeometry>
        </mxCell>
        <mxCell id="Oj5w3HKfONm3X5gUBiGD-89" value="VARCHAR" style="shape=partialRectangle;html=1;whiteSpace=wrap;connectable=0;strokeColor=inherit;overflow=hidden;fillColor=none;top=0;left=0;bottom=0;right=0;pointerEvents=1;" parent="Oj5w3HKfONm3X5gUBiGD-87" vertex="1">
          <mxGeometry x="160" width="95" height="28" as="geometry">
            <mxRectangle width="95" height="28" as="alternateBounds" />
          </mxGeometry>
        </mxCell>
        <mxCell id="Oj5w3HKfONm3X5gUBiGD-90" value="FK" style="shape=partialRectangle;html=1;whiteSpace=wrap;connectable=0;strokeColor=inherit;overflow=hidden;fillColor=none;top=0;left=0;bottom=0;right=0;pointerEvents=1;" parent="Oj5w3HKfONm3X5gUBiGD-87" vertex="1">
          <mxGeometry x="255" width="55" height="28" as="geometry">
            <mxRectangle width="55" height="28" as="alternateBounds" />
          </mxGeometry>
        </mxCell>
        <mxCell id="Oj5w3HKfONm3X5gUBiGD-91" style="shape=tableRow;horizontal=0;startSize=0;swimlaneHead=0;swimlaneBody=0;strokeColor=inherit;top=0;left=0;bottom=0;right=0;collapsible=0;dropTarget=0;fillColor=none;points=[[0,0.5],[1,0.5]];portConstraint=eastwest;" parent="Oj5w3HKfONm3X5gUBiGD-82" vertex="1">
          <mxGeometry y="106" width="310" height="28" as="geometry" />
        </mxCell>
        <mxCell id="Oj5w3HKfONm3X5gUBiGD-92" value="ConjugStats" style="shape=partialRectangle;html=1;whiteSpace=wrap;connectable=0;strokeColor=inherit;overflow=hidden;fillColor=none;top=0;left=0;bottom=0;right=0;pointerEvents=1;align=left;" parent="Oj5w3HKfONm3X5gUBiGD-91" vertex="1">
          <mxGeometry width="160" height="28" as="geometry">
            <mxRectangle width="160" height="28" as="alternateBounds" />
          </mxGeometry>
        </mxCell>
        <mxCell id="Oj5w3HKfONm3X5gUBiGD-93" value="VARCHAR" style="shape=partialRectangle;html=1;whiteSpace=wrap;connectable=0;strokeColor=inherit;overflow=hidden;fillColor=none;top=0;left=0;bottom=0;right=0;pointerEvents=1;" parent="Oj5w3HKfONm3X5gUBiGD-91" vertex="1">
          <mxGeometry x="160" width="95" height="28" as="geometry">
            <mxRectangle width="95" height="28" as="alternateBounds" />
          </mxGeometry>
        </mxCell>
        <mxCell id="Oj5w3HKfONm3X5gUBiGD-94" value="FK" style="shape=partialRectangle;html=1;whiteSpace=wrap;connectable=0;strokeColor=inherit;overflow=hidden;fillColor=none;top=0;left=0;bottom=0;right=0;pointerEvents=1;" parent="Oj5w3HKfONm3X5gUBiGD-91" vertex="1">
          <mxGeometry x="255" width="55" height="28" as="geometry">
            <mxRectangle width="55" height="28" as="alternateBounds" />
          </mxGeometry>
        </mxCell>
        <mxCell id="Oj5w3HKfONm3X5gUBiGD-99" style="edgeStyle=orthogonalEdgeStyle;rounded=0;orthogonalLoop=1;jettySize=auto;html=1;exitX=0;exitY=0.5;exitDx=0;exitDy=0;entryX=0;entryY=0.366;entryDx=0;entryDy=0;entryPerimeter=0;" parent="1" source="Oj5w3HKfONm3X5gUBiGD-95" target="Oj5w3HKfONm3X5gUBiGD-82" edge="1">
          <mxGeometry relative="1" as="geometry">
            <Array as="points">
              <mxPoint x="20" y="280" />
              <mxPoint x="20" y="360" />
              <mxPoint x="40" y="360" />
            </Array>
          </mxGeometry>
        </mxCell>
        <mxCell id="Oj5w3HKfONm3X5gUBiGD-100" value="VocabStats" style="shape=table;startSize=50;container=1;collapsible=0;childLayout=tableLayout;fontSize=13;" parent="1" vertex="1">
          <mxGeometry x="440" y="240" width="310" height="190" as="geometry" />
        </mxCell>
        <mxCell id="Oj5w3HKfONm3X5gUBiGD-101" value="" style="shape=tableRow;horizontal=0;startSize=0;swimlaneHead=0;swimlaneBody=0;strokeColor=inherit;top=0;left=0;bottom=0;right=0;collapsible=0;dropTarget=0;fillColor=none;points=[[0,0.5],[1,0.5]];portConstraint=eastwest;" parent="Oj5w3HKfONm3X5gUBiGD-100" vertex="1">
          <mxGeometry y="50" width="310" height="28" as="geometry" />
        </mxCell>
        <mxCell id="Oj5w3HKfONm3X5gUBiGD-102" value="ID" style="shape=partialRectangle;html=1;whiteSpace=wrap;connectable=0;strokeColor=inherit;overflow=hidden;fillColor=none;top=0;left=0;bottom=0;right=0;pointerEvents=1;align=left;" parent="Oj5w3HKfONm3X5gUBiGD-101" vertex="1">
          <mxGeometry width="160" height="28" as="geometry">
            <mxRectangle width="160" height="28" as="alternateBounds" />
          </mxGeometry>
        </mxCell>
        <mxCell id="Oj5w3HKfONm3X5gUBiGD-103" value="INT" style="shape=partialRectangle;html=1;whiteSpace=wrap;connectable=0;strokeColor=inherit;overflow=hidden;fillColor=none;top=0;left=0;bottom=0;right=0;pointerEvents=1;" parent="Oj5w3HKfONm3X5gUBiGD-101" vertex="1">
          <mxGeometry x="160" width="95" height="28" as="geometry">
            <mxRectangle width="95" height="28" as="alternateBounds" />
          </mxGeometry>
        </mxCell>
        <mxCell id="Oj5w3HKfONm3X5gUBiGD-104" value="PK" style="shape=partialRectangle;html=1;whiteSpace=wrap;connectable=0;strokeColor=inherit;overflow=hidden;fillColor=none;top=0;left=0;bottom=0;right=0;pointerEvents=1;" parent="Oj5w3HKfONm3X5gUBiGD-101" vertex="1">
          <mxGeometry x="255" width="55" height="28" as="geometry">
            <mxRectangle width="55" height="28" as="alternateBounds" />
          </mxGeometry>
        </mxCell>
        <mxCell id="Oj5w3HKfONm3X5gUBiGD-105" value="" style="shape=tableRow;horizontal=0;startSize=0;swimlaneHead=0;swimlaneBody=0;strokeColor=inherit;top=0;left=0;bottom=0;right=0;collapsible=0;dropTarget=0;fillColor=none;points=[[0,0.5],[1,0.5]];portConstraint=eastwest;" parent="Oj5w3HKfONm3X5gUBiGD-100" vertex="1">
          <mxGeometry y="78" width="310" height="28" as="geometry" />
        </mxCell>
        <mxCell id="Oj5w3HKfONm3X5gUBiGD-106" value="TestAmount" style="shape=partialRectangle;html=1;whiteSpace=wrap;connectable=0;strokeColor=inherit;overflow=hidden;fillColor=none;top=0;left=0;bottom=0;right=0;pointerEvents=1;align=left;" parent="Oj5w3HKfONm3X5gUBiGD-105" vertex="1">
          <mxGeometry width="160" height="28" as="geometry">
            <mxRectangle width="160" height="28" as="alternateBounds" />
          </mxGeometry>
        </mxCell>
        <mxCell id="Oj5w3HKfONm3X5gUBiGD-107" value="INT" style="shape=partialRectangle;html=1;whiteSpace=wrap;connectable=0;strokeColor=inherit;overflow=hidden;fillColor=none;top=0;left=0;bottom=0;right=0;pointerEvents=1;" parent="Oj5w3HKfONm3X5gUBiGD-105" vertex="1">
          <mxGeometry x="160" width="95" height="28" as="geometry">
            <mxRectangle width="95" height="28" as="alternateBounds" />
          </mxGeometry>
        </mxCell>
        <mxCell id="Oj5w3HKfONm3X5gUBiGD-108" value="" style="shape=partialRectangle;html=1;whiteSpace=wrap;connectable=0;strokeColor=inherit;overflow=hidden;fillColor=none;top=0;left=0;bottom=0;right=0;pointerEvents=1;" parent="Oj5w3HKfONm3X5gUBiGD-105" vertex="1">
          <mxGeometry x="255" width="55" height="28" as="geometry">
            <mxRectangle width="55" height="28" as="alternateBounds" />
          </mxGeometry>
        </mxCell>
        <mxCell id="Oj5w3HKfONm3X5gUBiGD-109" style="shape=tableRow;horizontal=0;startSize=0;swimlaneHead=0;swimlaneBody=0;strokeColor=inherit;top=0;left=0;bottom=0;right=0;collapsible=0;dropTarget=0;fillColor=none;points=[[0,0.5],[1,0.5]];portConstraint=eastwest;" parent="Oj5w3HKfONm3X5gUBiGD-100" vertex="1">
          <mxGeometry y="106" width="310" height="28" as="geometry" />
        </mxCell>
        <mxCell id="Oj5w3HKfONm3X5gUBiGD-110" value="TestResults" style="shape=partialRectangle;html=1;whiteSpace=wrap;connectable=0;strokeColor=inherit;overflow=hidden;fillColor=none;top=0;left=0;bottom=0;right=0;pointerEvents=1;align=left;" parent="Oj5w3HKfONm3X5gUBiGD-109" vertex="1">
          <mxGeometry width="160" height="28" as="geometry">
            <mxRectangle width="160" height="28" as="alternateBounds" />
          </mxGeometry>
        </mxCell>
        <mxCell id="Oj5w3HKfONm3X5gUBiGD-111" value="VARCHAR" style="shape=partialRectangle;html=1;whiteSpace=wrap;connectable=0;strokeColor=inherit;overflow=hidden;fillColor=none;top=0;left=0;bottom=0;right=0;pointerEvents=1;" parent="Oj5w3HKfONm3X5gUBiGD-109" vertex="1">
          <mxGeometry x="160" width="95" height="28" as="geometry">
            <mxRectangle width="95" height="28" as="alternateBounds" />
          </mxGeometry>
        </mxCell>
        <mxCell id="Oj5w3HKfONm3X5gUBiGD-112" value="" style="shape=partialRectangle;html=1;whiteSpace=wrap;connectable=0;strokeColor=inherit;overflow=hidden;fillColor=none;top=0;left=0;bottom=0;right=0;pointerEvents=1;" parent="Oj5w3HKfONm3X5gUBiGD-109" vertex="1">
          <mxGeometry x="255" width="55" height="28" as="geometry">
            <mxRectangle width="55" height="28" as="alternateBounds" />
          </mxGeometry>
        </mxCell>
        <mxCell id="wzH2C587A3JeESDqqiCg-1" style="shape=tableRow;horizontal=0;startSize=0;swimlaneHead=0;swimlaneBody=0;strokeColor=inherit;top=0;left=0;bottom=0;right=0;collapsible=0;dropTarget=0;fillColor=none;points=[[0,0.5],[1,0.5]];portConstraint=eastwest;" vertex="1" parent="Oj5w3HKfONm3X5gUBiGD-100">
          <mxGeometry y="134" width="310" height="28" as="geometry" />
        </mxCell>
        <mxCell id="wzH2C587A3JeESDqqiCg-2" value="TimeOfTest" style="shape=partialRectangle;html=1;whiteSpace=wrap;connectable=0;strokeColor=inherit;overflow=hidden;fillColor=none;top=0;left=0;bottom=0;right=0;pointerEvents=1;align=left;" vertex="1" parent="wzH2C587A3JeESDqqiCg-1">
          <mxGeometry width="160" height="28" as="geometry">
            <mxRectangle width="160" height="28" as="alternateBounds" />
          </mxGeometry>
        </mxCell>
        <mxCell id="wzH2C587A3JeESDqqiCg-3" value="DATETIME" style="shape=partialRectangle;html=1;whiteSpace=wrap;connectable=0;strokeColor=inherit;overflow=hidden;fillColor=none;top=0;left=0;bottom=0;right=0;pointerEvents=1;" vertex="1" parent="wzH2C587A3JeESDqqiCg-1">
          <mxGeometry x="160" width="95" height="28" as="geometry">
            <mxRectangle width="95" height="28" as="alternateBounds" />
          </mxGeometry>
        </mxCell>
        <mxCell id="wzH2C587A3JeESDqqiCg-4" style="shape=partialRectangle;html=1;whiteSpace=wrap;connectable=0;strokeColor=inherit;overflow=hidden;fillColor=none;top=0;left=0;bottom=0;right=0;pointerEvents=1;" vertex="1" parent="wzH2C587A3JeESDqqiCg-1">
          <mxGeometry x="255" width="55" height="28" as="geometry">
            <mxRectangle width="55" height="28" as="alternateBounds" />
          </mxGeometry>
        </mxCell>
        <mxCell id="wzH2C587A3JeESDqqiCg-5" style="shape=tableRow;horizontal=0;startSize=0;swimlaneHead=0;swimlaneBody=0;strokeColor=inherit;top=0;left=0;bottom=0;right=0;collapsible=0;dropTarget=0;fillColor=none;points=[[0,0.5],[1,0.5]];portConstraint=eastwest;" vertex="1" parent="Oj5w3HKfONm3X5gUBiGD-100">
          <mxGeometry y="162" width="310" height="28" as="geometry" />
        </mxCell>
        <mxCell id="wzH2C587A3JeESDqqiCg-6" value="VocList_ID" style="shape=partialRectangle;html=1;whiteSpace=wrap;connectable=0;strokeColor=inherit;overflow=hidden;fillColor=none;top=0;left=0;bottom=0;right=0;pointerEvents=1;align=left;" vertex="1" parent="wzH2C587A3JeESDqqiCg-5">
          <mxGeometry width="160" height="28" as="geometry">
            <mxRectangle width="160" height="28" as="alternateBounds" />
          </mxGeometry>
        </mxCell>
        <mxCell id="wzH2C587A3JeESDqqiCg-7" value="VARCHAR" style="shape=partialRectangle;html=1;whiteSpace=wrap;connectable=0;strokeColor=inherit;overflow=hidden;fillColor=none;top=0;left=0;bottom=0;right=0;pointerEvents=1;" vertex="1" parent="wzH2C587A3JeESDqqiCg-5">
          <mxGeometry x="160" width="95" height="28" as="geometry">
            <mxRectangle width="95" height="28" as="alternateBounds" />
          </mxGeometry>
        </mxCell>
        <mxCell id="wzH2C587A3JeESDqqiCg-8" value="FK" style="shape=partialRectangle;html=1;whiteSpace=wrap;connectable=0;strokeColor=inherit;overflow=hidden;fillColor=none;top=0;left=0;bottom=0;right=0;pointerEvents=1;" vertex="1" parent="wzH2C587A3JeESDqqiCg-5">
          <mxGeometry x="255" width="55" height="28" as="geometry">
            <mxRectangle width="55" height="28" as="alternateBounds" />
          </mxGeometry>
        </mxCell>
        <mxCell id="Oj5w3HKfONm3X5gUBiGD-113" value="ConjugStats" style="shape=table;startSize=50;container=1;collapsible=0;childLayout=tableLayout;fontSize=13;" parent="1" vertex="1">
          <mxGeometry x="50" y="550" width="310" height="246" as="geometry" />
        </mxCell>
        <mxCell id="Oj5w3HKfONm3X5gUBiGD-114" value="" style="shape=tableRow;horizontal=0;startSize=0;swimlaneHead=0;swimlaneBody=0;strokeColor=inherit;top=0;left=0;bottom=0;right=0;collapsible=0;dropTarget=0;fillColor=none;points=[[0,0.5],[1,0.5]];portConstraint=eastwest;" parent="Oj5w3HKfONm3X5gUBiGD-113" vertex="1">
          <mxGeometry y="50" width="310" height="28" as="geometry" />
        </mxCell>
        <mxCell id="Oj5w3HKfONm3X5gUBiGD-115" value="ID" style="shape=partialRectangle;html=1;whiteSpace=wrap;connectable=0;strokeColor=inherit;overflow=hidden;fillColor=none;top=0;left=0;bottom=0;right=0;pointerEvents=1;align=left;" parent="Oj5w3HKfONm3X5gUBiGD-114" vertex="1">
          <mxGeometry width="160" height="28" as="geometry">
            <mxRectangle width="160" height="28" as="alternateBounds" />
          </mxGeometry>
        </mxCell>
        <mxCell id="Oj5w3HKfONm3X5gUBiGD-116" value="INT" style="shape=partialRectangle;html=1;whiteSpace=wrap;connectable=0;strokeColor=inherit;overflow=hidden;fillColor=none;top=0;left=0;bottom=0;right=0;pointerEvents=1;" parent="Oj5w3HKfONm3X5gUBiGD-114" vertex="1">
          <mxGeometry x="160" width="95" height="28" as="geometry">
            <mxRectangle width="95" height="28" as="alternateBounds" />
          </mxGeometry>
        </mxCell>
        <mxCell id="Oj5w3HKfONm3X5gUBiGD-117" value="PK" style="shape=partialRectangle;html=1;whiteSpace=wrap;connectable=0;strokeColor=inherit;overflow=hidden;fillColor=none;top=0;left=0;bottom=0;right=0;pointerEvents=1;" parent="Oj5w3HKfONm3X5gUBiGD-114" vertex="1">
          <mxGeometry x="255" width="55" height="28" as="geometry">
            <mxRectangle width="55" height="28" as="alternateBounds" />
          </mxGeometry>
        </mxCell>
        <mxCell id="Oj5w3HKfONm3X5gUBiGD-118" value="" style="shape=tableRow;horizontal=0;startSize=0;swimlaneHead=0;swimlaneBody=0;strokeColor=inherit;top=0;left=0;bottom=0;right=0;collapsible=0;dropTarget=0;fillColor=none;points=[[0,0.5],[1,0.5]];portConstraint=eastwest;" parent="Oj5w3HKfONm3X5gUBiGD-113" vertex="1">
          <mxGeometry y="78" width="310" height="28" as="geometry" />
        </mxCell>
        <mxCell id="Oj5w3HKfONm3X5gUBiGD-119" value="TestAmount" style="shape=partialRectangle;html=1;whiteSpace=wrap;connectable=0;strokeColor=inherit;overflow=hidden;fillColor=none;top=0;left=0;bottom=0;right=0;pointerEvents=1;align=left;" parent="Oj5w3HKfONm3X5gUBiGD-118" vertex="1">
          <mxGeometry width="160" height="28" as="geometry">
            <mxRectangle width="160" height="28" as="alternateBounds" />
          </mxGeometry>
        </mxCell>
        <mxCell id="Oj5w3HKfONm3X5gUBiGD-120" value="VARCHAR" style="shape=partialRectangle;html=1;whiteSpace=wrap;connectable=0;strokeColor=inherit;overflow=hidden;fillColor=none;top=0;left=0;bottom=0;right=0;pointerEvents=1;" parent="Oj5w3HKfONm3X5gUBiGD-118" vertex="1">
          <mxGeometry x="160" width="95" height="28" as="geometry">
            <mxRectangle width="95" height="28" as="alternateBounds" />
          </mxGeometry>
        </mxCell>
        <mxCell id="Oj5w3HKfONm3X5gUBiGD-121" value="" style="shape=partialRectangle;html=1;whiteSpace=wrap;connectable=0;strokeColor=inherit;overflow=hidden;fillColor=none;top=0;left=0;bottom=0;right=0;pointerEvents=1;" parent="Oj5w3HKfONm3X5gUBiGD-118" vertex="1">
          <mxGeometry x="255" width="55" height="28" as="geometry">
            <mxRectangle width="55" height="28" as="alternateBounds" />
          </mxGeometry>
        </mxCell>
        <mxCell id="Oj5w3HKfONm3X5gUBiGD-122" style="shape=tableRow;horizontal=0;startSize=0;swimlaneHead=0;swimlaneBody=0;strokeColor=inherit;top=0;left=0;bottom=0;right=0;collapsible=0;dropTarget=0;fillColor=none;points=[[0,0.5],[1,0.5]];portConstraint=eastwest;" parent="Oj5w3HKfONm3X5gUBiGD-113" vertex="1">
          <mxGeometry y="106" width="310" height="28" as="geometry" />
        </mxCell>
        <mxCell id="Oj5w3HKfONm3X5gUBiGD-123" value="ConjugTestResults" style="shape=partialRectangle;html=1;whiteSpace=wrap;connectable=0;strokeColor=inherit;overflow=hidden;fillColor=none;top=0;left=0;bottom=0;right=0;pointerEvents=1;align=left;" parent="Oj5w3HKfONm3X5gUBiGD-122" vertex="1">
          <mxGeometry width="160" height="28" as="geometry">
            <mxRectangle width="160" height="28" as="alternateBounds" />
          </mxGeometry>
        </mxCell>
        <mxCell id="Oj5w3HKfONm3X5gUBiGD-124" value="VARCHAR" style="shape=partialRectangle;html=1;whiteSpace=wrap;connectable=0;strokeColor=inherit;overflow=hidden;fillColor=none;top=0;left=0;bottom=0;right=0;pointerEvents=1;" parent="Oj5w3HKfONm3X5gUBiGD-122" vertex="1">
          <mxGeometry x="160" width="95" height="28" as="geometry">
            <mxRectangle width="95" height="28" as="alternateBounds" />
          </mxGeometry>
        </mxCell>
        <mxCell id="Oj5w3HKfONm3X5gUBiGD-125" value="" style="shape=partialRectangle;html=1;whiteSpace=wrap;connectable=0;strokeColor=inherit;overflow=hidden;fillColor=none;top=0;left=0;bottom=0;right=0;pointerEvents=1;" parent="Oj5w3HKfONm3X5gUBiGD-122" vertex="1">
          <mxGeometry x="255" width="55" height="28" as="geometry">
            <mxRectangle width="55" height="28" as="alternateBounds" />
          </mxGeometry>
        </mxCell>
        <mxCell id="Oj5w3HKfONm3X5gUBiGD-150" style="shape=tableRow;horizontal=0;startSize=0;swimlaneHead=0;swimlaneBody=0;strokeColor=inherit;top=0;left=0;bottom=0;right=0;collapsible=0;dropTarget=0;fillColor=none;points=[[0,0.5],[1,0.5]];portConstraint=eastwest;" parent="Oj5w3HKfONm3X5gUBiGD-113" vertex="1">
          <mxGeometry y="134" width="310" height="28" as="geometry" />
        </mxCell>
        <mxCell id="Oj5w3HKfONm3X5gUBiGD-151" value="VerbProgress" style="shape=partialRectangle;html=1;whiteSpace=wrap;connectable=0;strokeColor=inherit;overflow=hidden;fillColor=none;top=0;left=0;bottom=0;right=0;pointerEvents=1;align=left;" parent="Oj5w3HKfONm3X5gUBiGD-150" vertex="1">
          <mxGeometry width="160" height="28" as="geometry">
            <mxRectangle width="160" height="28" as="alternateBounds" />
          </mxGeometry>
        </mxCell>
        <mxCell id="Oj5w3HKfONm3X5gUBiGD-152" value="VARCHAR" style="shape=partialRectangle;html=1;whiteSpace=wrap;connectable=0;strokeColor=inherit;overflow=hidden;fillColor=none;top=0;left=0;bottom=0;right=0;pointerEvents=1;" parent="Oj5w3HKfONm3X5gUBiGD-150" vertex="1">
          <mxGeometry x="160" width="95" height="28" as="geometry">
            <mxRectangle width="95" height="28" as="alternateBounds" />
          </mxGeometry>
        </mxCell>
        <mxCell id="Oj5w3HKfONm3X5gUBiGD-153" style="shape=partialRectangle;html=1;whiteSpace=wrap;connectable=0;strokeColor=inherit;overflow=hidden;fillColor=none;top=0;left=0;bottom=0;right=0;pointerEvents=1;" parent="Oj5w3HKfONm3X5gUBiGD-150" vertex="1">
          <mxGeometry x="255" width="55" height="28" as="geometry">
            <mxRectangle width="55" height="28" as="alternateBounds" />
          </mxGeometry>
        </mxCell>
        <mxCell id="wzH2C587A3JeESDqqiCg-35" style="shape=tableRow;horizontal=0;startSize=0;swimlaneHead=0;swimlaneBody=0;strokeColor=inherit;top=0;left=0;bottom=0;right=0;collapsible=0;dropTarget=0;fillColor=none;points=[[0,0.5],[1,0.5]];portConstraint=eastwest;" vertex="1" parent="Oj5w3HKfONm3X5gUBiGD-113">
          <mxGeometry y="162" width="310" height="28" as="geometry" />
        </mxCell>
        <mxCell id="wzH2C587A3JeESDqqiCg-36" value="TenseProgress" style="shape=partialRectangle;html=1;whiteSpace=wrap;connectable=0;strokeColor=inherit;overflow=hidden;fillColor=none;top=0;left=0;bottom=0;right=0;pointerEvents=1;align=left;" vertex="1" parent="wzH2C587A3JeESDqqiCg-35">
          <mxGeometry width="160" height="28" as="geometry">
            <mxRectangle width="160" height="28" as="alternateBounds" />
          </mxGeometry>
        </mxCell>
        <mxCell id="wzH2C587A3JeESDqqiCg-37" value="VARCHAR" style="shape=partialRectangle;html=1;whiteSpace=wrap;connectable=0;strokeColor=inherit;overflow=hidden;fillColor=none;top=0;left=0;bottom=0;right=0;pointerEvents=1;" vertex="1" parent="wzH2C587A3JeESDqqiCg-35">
          <mxGeometry x="160" width="95" height="28" as="geometry">
            <mxRectangle width="95" height="28" as="alternateBounds" />
          </mxGeometry>
        </mxCell>
        <mxCell id="wzH2C587A3JeESDqqiCg-38" style="shape=partialRectangle;html=1;whiteSpace=wrap;connectable=0;strokeColor=inherit;overflow=hidden;fillColor=none;top=0;left=0;bottom=0;right=0;pointerEvents=1;" vertex="1" parent="wzH2C587A3JeESDqqiCg-35">
          <mxGeometry x="255" width="55" height="28" as="geometry">
            <mxRectangle width="55" height="28" as="alternateBounds" />
          </mxGeometry>
        </mxCell>
        <mxCell id="wzH2C587A3JeESDqqiCg-61" style="shape=tableRow;horizontal=0;startSize=0;swimlaneHead=0;swimlaneBody=0;strokeColor=inherit;top=0;left=0;bottom=0;right=0;collapsible=0;dropTarget=0;fillColor=none;points=[[0,0.5],[1,0.5]];portConstraint=eastwest;" vertex="1" parent="Oj5w3HKfONm3X5gUBiGD-113">
          <mxGeometry y="190" width="310" height="28" as="geometry" />
        </mxCell>
        <mxCell id="wzH2C587A3JeESDqqiCg-62" value="TimeSpend" style="shape=partialRectangle;html=1;whiteSpace=wrap;connectable=0;strokeColor=inherit;overflow=hidden;fillColor=none;top=0;left=0;bottom=0;right=0;pointerEvents=1;align=left;" vertex="1" parent="wzH2C587A3JeESDqqiCg-61">
          <mxGeometry width="160" height="28" as="geometry">
            <mxRectangle width="160" height="28" as="alternateBounds" />
          </mxGeometry>
        </mxCell>
        <mxCell id="wzH2C587A3JeESDqqiCg-63" value="INTERVAL" style="shape=partialRectangle;html=1;whiteSpace=wrap;connectable=0;strokeColor=inherit;overflow=hidden;fillColor=none;top=0;left=0;bottom=0;right=0;pointerEvents=1;" vertex="1" parent="wzH2C587A3JeESDqqiCg-61">
          <mxGeometry x="160" width="95" height="28" as="geometry">
            <mxRectangle width="95" height="28" as="alternateBounds" />
          </mxGeometry>
        </mxCell>
        <mxCell id="wzH2C587A3JeESDqqiCg-64" style="shape=partialRectangle;html=1;whiteSpace=wrap;connectable=0;strokeColor=inherit;overflow=hidden;fillColor=none;top=0;left=0;bottom=0;right=0;pointerEvents=1;" vertex="1" parent="wzH2C587A3JeESDqqiCg-61">
          <mxGeometry x="255" width="55" height="28" as="geometry">
            <mxRectangle width="55" height="28" as="alternateBounds" />
          </mxGeometry>
        </mxCell>
        <mxCell id="wzH2C587A3JeESDqqiCg-70" style="shape=tableRow;horizontal=0;startSize=0;swimlaneHead=0;swimlaneBody=0;strokeColor=inherit;top=0;left=0;bottom=0;right=0;collapsible=0;dropTarget=0;fillColor=none;points=[[0,0.5],[1,0.5]];portConstraint=eastwest;" vertex="1" parent="Oj5w3HKfONm3X5gUBiGD-113">
          <mxGeometry y="218" width="310" height="28" as="geometry" />
        </mxCell>
        <mxCell id="wzH2C587A3JeESDqqiCg-71" value="Test_ID" style="shape=partialRectangle;html=1;whiteSpace=wrap;connectable=0;strokeColor=inherit;overflow=hidden;fillColor=none;top=0;left=0;bottom=0;right=0;pointerEvents=1;align=left;" vertex="1" parent="wzH2C587A3JeESDqqiCg-70">
          <mxGeometry width="160" height="28" as="geometry">
            <mxRectangle width="160" height="28" as="alternateBounds" />
          </mxGeometry>
        </mxCell>
        <mxCell id="wzH2C587A3JeESDqqiCg-72" value="INT" style="shape=partialRectangle;html=1;whiteSpace=wrap;connectable=0;strokeColor=inherit;overflow=hidden;fillColor=none;top=0;left=0;bottom=0;right=0;pointerEvents=1;" vertex="1" parent="wzH2C587A3JeESDqqiCg-70">
          <mxGeometry x="160" width="95" height="28" as="geometry">
            <mxRectangle width="95" height="28" as="alternateBounds" />
          </mxGeometry>
        </mxCell>
        <mxCell id="wzH2C587A3JeESDqqiCg-73" value="FK" style="shape=partialRectangle;html=1;whiteSpace=wrap;connectable=0;strokeColor=inherit;overflow=hidden;fillColor=none;top=0;left=0;bottom=0;right=0;pointerEvents=1;" vertex="1" parent="wzH2C587A3JeESDqqiCg-70">
          <mxGeometry x="255" width="55" height="28" as="geometry">
            <mxRectangle width="55" height="28" as="alternateBounds" />
          </mxGeometry>
        </mxCell>
        <mxCell id="Oj5w3HKfONm3X5gUBiGD-126" style="edgeStyle=orthogonalEdgeStyle;rounded=0;orthogonalLoop=1;jettySize=auto;html=1;exitX=1;exitY=0.5;exitDx=0;exitDy=0;entryX=0;entryY=0.25;entryDx=0;entryDy=0;" parent="1" source="Oj5w3HKfONm3X5gUBiGD-87" target="Oj5w3HKfONm3X5gUBiGD-100" edge="1">
          <mxGeometry relative="1" as="geometry" />
        </mxCell>
        <mxCell id="Oj5w3HKfONm3X5gUBiGD-127" style="edgeStyle=orthogonalEdgeStyle;rounded=0;orthogonalLoop=1;jettySize=auto;html=1;exitX=1;exitY=0.5;exitDx=0;exitDy=0;entryX=0;entryY=0.201;entryDx=0;entryDy=0;entryPerimeter=0;" parent="1" source="Oj5w3HKfONm3X5gUBiGD-91" target="Oj5w3HKfONm3X5gUBiGD-113" edge="1">
          <mxGeometry relative="1" as="geometry" />
        </mxCell>
        <mxCell id="Oj5w3HKfONm3X5gUBiGD-128" style="edgeStyle=orthogonalEdgeStyle;rounded=0;orthogonalLoop=1;jettySize=auto;html=1;exitX=1;exitY=0.5;exitDx=0;exitDy=0;entryX=0;entryY=0.25;entryDx=0;entryDy=0;" parent="1" source="Oj5w3HKfONm3X5gUBiGD-41" target="Oj5w3HKfONm3X5gUBiGD-46" edge="1">
          <mxGeometry relative="1" as="geometry" />
        </mxCell>
        <mxCell id="wzH2C587A3JeESDqqiCg-9" value="VocList" style="shape=table;startSize=50;container=1;collapsible=0;childLayout=tableLayout;fontSize=13;" vertex="1" parent="1">
          <mxGeometry x="440" y="476" width="310" height="162" as="geometry" />
        </mxCell>
        <mxCell id="wzH2C587A3JeESDqqiCg-10" value="" style="shape=tableRow;horizontal=0;startSize=0;swimlaneHead=0;swimlaneBody=0;strokeColor=inherit;top=0;left=0;bottom=0;right=0;collapsible=0;dropTarget=0;fillColor=none;points=[[0,0.5],[1,0.5]];portConstraint=eastwest;" vertex="1" parent="wzH2C587A3JeESDqqiCg-9">
          <mxGeometry y="50" width="310" height="28" as="geometry" />
        </mxCell>
        <mxCell id="wzH2C587A3JeESDqqiCg-11" value="VocList_ID" style="shape=partialRectangle;html=1;whiteSpace=wrap;connectable=0;strokeColor=inherit;overflow=hidden;fillColor=none;top=0;left=0;bottom=0;right=0;pointerEvents=1;align=left;" vertex="1" parent="wzH2C587A3JeESDqqiCg-10">
          <mxGeometry width="160" height="28" as="geometry">
            <mxRectangle width="160" height="28" as="alternateBounds" />
          </mxGeometry>
        </mxCell>
        <mxCell id="wzH2C587A3JeESDqqiCg-12" value="INT" style="shape=partialRectangle;html=1;whiteSpace=wrap;connectable=0;strokeColor=inherit;overflow=hidden;fillColor=none;top=0;left=0;bottom=0;right=0;pointerEvents=1;" vertex="1" parent="wzH2C587A3JeESDqqiCg-10">
          <mxGeometry x="160" width="95" height="28" as="geometry">
            <mxRectangle width="95" height="28" as="alternateBounds" />
          </mxGeometry>
        </mxCell>
        <mxCell id="wzH2C587A3JeESDqqiCg-13" value="FK" style="shape=partialRectangle;html=1;whiteSpace=wrap;connectable=0;strokeColor=inherit;overflow=hidden;fillColor=none;top=0;left=0;bottom=0;right=0;pointerEvents=1;" vertex="1" parent="wzH2C587A3JeESDqqiCg-10">
          <mxGeometry x="255" width="55" height="28" as="geometry">
            <mxRectangle width="55" height="28" as="alternateBounds" />
          </mxGeometry>
        </mxCell>
        <mxCell id="wzH2C587A3JeESDqqiCg-14" value="" style="shape=tableRow;horizontal=0;startSize=0;swimlaneHead=0;swimlaneBody=0;strokeColor=inherit;top=0;left=0;bottom=0;right=0;collapsible=0;dropTarget=0;fillColor=none;points=[[0,0.5],[1,0.5]];portConstraint=eastwest;" vertex="1" parent="wzH2C587A3JeESDqqiCg-9">
          <mxGeometry y="78" width="310" height="28" as="geometry" />
        </mxCell>
        <mxCell id="wzH2C587A3JeESDqqiCg-15" value="FrenchWords" style="shape=partialRectangle;html=1;whiteSpace=wrap;connectable=0;strokeColor=inherit;overflow=hidden;fillColor=none;top=0;left=0;bottom=0;right=0;pointerEvents=1;align=left;" vertex="1" parent="wzH2C587A3JeESDqqiCg-14">
          <mxGeometry width="160" height="28" as="geometry">
            <mxRectangle width="160" height="28" as="alternateBounds" />
          </mxGeometry>
        </mxCell>
        <mxCell id="wzH2C587A3JeESDqqiCg-16" value="VARCHAR" style="shape=partialRectangle;html=1;whiteSpace=wrap;connectable=0;strokeColor=inherit;overflow=hidden;fillColor=none;top=0;left=0;bottom=0;right=0;pointerEvents=1;" vertex="1" parent="wzH2C587A3JeESDqqiCg-14">
          <mxGeometry x="160" width="95" height="28" as="geometry">
            <mxRectangle width="95" height="28" as="alternateBounds" />
          </mxGeometry>
        </mxCell>
        <mxCell id="wzH2C587A3JeESDqqiCg-17" value="" style="shape=partialRectangle;html=1;whiteSpace=wrap;connectable=0;strokeColor=inherit;overflow=hidden;fillColor=none;top=0;left=0;bottom=0;right=0;pointerEvents=1;" vertex="1" parent="wzH2C587A3JeESDqqiCg-14">
          <mxGeometry x="255" width="55" height="28" as="geometry">
            <mxRectangle width="55" height="28" as="alternateBounds" />
          </mxGeometry>
        </mxCell>
        <mxCell id="wzH2C587A3JeESDqqiCg-18" style="shape=tableRow;horizontal=0;startSize=0;swimlaneHead=0;swimlaneBody=0;strokeColor=inherit;top=0;left=0;bottom=0;right=0;collapsible=0;dropTarget=0;fillColor=none;points=[[0,0.5],[1,0.5]];portConstraint=eastwest;" vertex="1" parent="wzH2C587A3JeESDqqiCg-9">
          <mxGeometry y="106" width="310" height="28" as="geometry" />
        </mxCell>
        <mxCell id="wzH2C587A3JeESDqqiCg-19" value="DutchWords" style="shape=partialRectangle;html=1;whiteSpace=wrap;connectable=0;strokeColor=inherit;overflow=hidden;fillColor=none;top=0;left=0;bottom=0;right=0;pointerEvents=1;align=left;" vertex="1" parent="wzH2C587A3JeESDqqiCg-18">
          <mxGeometry width="160" height="28" as="geometry">
            <mxRectangle width="160" height="28" as="alternateBounds" />
          </mxGeometry>
        </mxCell>
        <mxCell id="wzH2C587A3JeESDqqiCg-20" value="VARCHAR" style="shape=partialRectangle;html=1;whiteSpace=wrap;connectable=0;strokeColor=inherit;overflow=hidden;fillColor=none;top=0;left=0;bottom=0;right=0;pointerEvents=1;" vertex="1" parent="wzH2C587A3JeESDqqiCg-18">
          <mxGeometry x="160" width="95" height="28" as="geometry">
            <mxRectangle width="95" height="28" as="alternateBounds" />
          </mxGeometry>
        </mxCell>
        <mxCell id="wzH2C587A3JeESDqqiCg-21" value="" style="shape=partialRectangle;html=1;whiteSpace=wrap;connectable=0;strokeColor=inherit;overflow=hidden;fillColor=none;top=0;left=0;bottom=0;right=0;pointerEvents=1;" vertex="1" parent="wzH2C587A3JeESDqqiCg-18">
          <mxGeometry x="255" width="55" height="28" as="geometry">
            <mxRectangle width="55" height="28" as="alternateBounds" />
          </mxGeometry>
        </mxCell>
        <mxCell id="wzH2C587A3JeESDqqiCg-22" style="shape=tableRow;horizontal=0;startSize=0;swimlaneHead=0;swimlaneBody=0;strokeColor=inherit;top=0;left=0;bottom=0;right=0;collapsible=0;dropTarget=0;fillColor=none;points=[[0,0.5],[1,0.5]];portConstraint=eastwest;" vertex="1" parent="wzH2C587A3JeESDqqiCg-9">
          <mxGeometry y="134" width="310" height="28" as="geometry" />
        </mxCell>
        <mxCell id="wzH2C587A3JeESDqqiCg-23" value="CreatorID" style="shape=partialRectangle;html=1;whiteSpace=wrap;connectable=0;strokeColor=inherit;overflow=hidden;fillColor=none;top=0;left=0;bottom=0;right=0;pointerEvents=1;align=left;" vertex="1" parent="wzH2C587A3JeESDqqiCg-22">
          <mxGeometry width="160" height="28" as="geometry">
            <mxRectangle width="160" height="28" as="alternateBounds" />
          </mxGeometry>
        </mxCell>
        <mxCell id="wzH2C587A3JeESDqqiCg-24" value="VARCHAR" style="shape=partialRectangle;html=1;whiteSpace=wrap;connectable=0;strokeColor=inherit;overflow=hidden;fillColor=none;top=0;left=0;bottom=0;right=0;pointerEvents=1;" vertex="1" parent="wzH2C587A3JeESDqqiCg-22">
          <mxGeometry x="160" width="95" height="28" as="geometry">
            <mxRectangle width="95" height="28" as="alternateBounds" />
          </mxGeometry>
        </mxCell>
        <mxCell id="wzH2C587A3JeESDqqiCg-25" style="shape=partialRectangle;html=1;whiteSpace=wrap;connectable=0;strokeColor=inherit;overflow=hidden;fillColor=none;top=0;left=0;bottom=0;right=0;pointerEvents=1;" vertex="1" parent="wzH2C587A3JeESDqqiCg-22">
          <mxGeometry x="255" width="55" height="28" as="geometry">
            <mxRectangle width="55" height="28" as="alternateBounds" />
          </mxGeometry>
        </mxCell>
        <mxCell id="wzH2C587A3JeESDqqiCg-34" style="edgeStyle=orthogonalEdgeStyle;rounded=0;orthogonalLoop=1;jettySize=auto;html=1;exitX=0;exitY=0.5;exitDx=0;exitDy=0;entryX=0;entryY=0.5;entryDx=0;entryDy=0;" edge="1" parent="1" source="wzH2C587A3JeESDqqiCg-5" target="wzH2C587A3JeESDqqiCg-10">
          <mxGeometry relative="1" as="geometry" />
        </mxCell>
        <mxCell id="wzH2C587A3JeESDqqiCg-39" value="ConjugTest" style="shape=table;startSize=50;container=1;collapsible=0;childLayout=tableLayout;fontSize=13;" vertex="1" parent="1">
          <mxGeometry x="70" y="820" width="310" height="218" as="geometry" />
        </mxCell>
        <mxCell id="wzH2C587A3JeESDqqiCg-40" value="" style="shape=tableRow;horizontal=0;startSize=0;swimlaneHead=0;swimlaneBody=0;strokeColor=inherit;top=0;left=0;bottom=0;right=0;collapsible=0;dropTarget=0;fillColor=none;points=[[0,0.5],[1,0.5]];portConstraint=eastwest;" vertex="1" parent="wzH2C587A3JeESDqqiCg-39">
          <mxGeometry y="50" width="310" height="28" as="geometry" />
        </mxCell>
        <mxCell id="wzH2C587A3JeESDqqiCg-41" value="ID" style="shape=partialRectangle;html=1;whiteSpace=wrap;connectable=0;strokeColor=inherit;overflow=hidden;fillColor=none;top=0;left=0;bottom=0;right=0;pointerEvents=1;align=left;" vertex="1" parent="wzH2C587A3JeESDqqiCg-40">
          <mxGeometry width="160" height="28" as="geometry">
            <mxRectangle width="160" height="28" as="alternateBounds" />
          </mxGeometry>
        </mxCell>
        <mxCell id="wzH2C587A3JeESDqqiCg-42" value="INT" style="shape=partialRectangle;html=1;whiteSpace=wrap;connectable=0;strokeColor=inherit;overflow=hidden;fillColor=none;top=0;left=0;bottom=0;right=0;pointerEvents=1;" vertex="1" parent="wzH2C587A3JeESDqqiCg-40">
          <mxGeometry x="160" width="95" height="28" as="geometry">
            <mxRectangle width="95" height="28" as="alternateBounds" />
          </mxGeometry>
        </mxCell>
        <mxCell id="wzH2C587A3JeESDqqiCg-43" value="PK" style="shape=partialRectangle;html=1;whiteSpace=wrap;connectable=0;strokeColor=inherit;overflow=hidden;fillColor=none;top=0;left=0;bottom=0;right=0;pointerEvents=1;" vertex="1" parent="wzH2C587A3JeESDqqiCg-40">
          <mxGeometry x="255" width="55" height="28" as="geometry">
            <mxRectangle width="55" height="28" as="alternateBounds" />
          </mxGeometry>
        </mxCell>
        <mxCell id="wzH2C587A3JeESDqqiCg-44" value="" style="shape=tableRow;horizontal=0;startSize=0;swimlaneHead=0;swimlaneBody=0;strokeColor=inherit;top=0;left=0;bottom=0;right=0;collapsible=0;dropTarget=0;fillColor=none;points=[[0,0.5],[1,0.5]];portConstraint=eastwest;" vertex="1" parent="wzH2C587A3JeESDqqiCg-39">
          <mxGeometry y="78" width="310" height="28" as="geometry" />
        </mxCell>
        <mxCell id="wzH2C587A3JeESDqqiCg-45" value="Test_ID" style="shape=partialRectangle;html=1;whiteSpace=wrap;connectable=0;strokeColor=inherit;overflow=hidden;fillColor=none;top=0;left=0;bottom=0;right=0;pointerEvents=1;align=left;" vertex="1" parent="wzH2C587A3JeESDqqiCg-44">
          <mxGeometry width="160" height="28" as="geometry">
            <mxRectangle width="160" height="28" as="alternateBounds" />
          </mxGeometry>
        </mxCell>
        <mxCell id="wzH2C587A3JeESDqqiCg-46" value="INT" style="shape=partialRectangle;html=1;whiteSpace=wrap;connectable=0;strokeColor=inherit;overflow=hidden;fillColor=none;top=0;left=0;bottom=0;right=0;pointerEvents=1;" vertex="1" parent="wzH2C587A3JeESDqqiCg-44">
          <mxGeometry x="160" width="95" height="28" as="geometry">
            <mxRectangle width="95" height="28" as="alternateBounds" />
          </mxGeometry>
        </mxCell>
        <mxCell id="wzH2C587A3JeESDqqiCg-47" value="FK" style="shape=partialRectangle;html=1;whiteSpace=wrap;connectable=0;strokeColor=inherit;overflow=hidden;fillColor=none;top=0;left=0;bottom=0;right=0;pointerEvents=1;" vertex="1" parent="wzH2C587A3JeESDqqiCg-44">
          <mxGeometry x="255" width="55" height="28" as="geometry">
            <mxRectangle width="55" height="28" as="alternateBounds" />
          </mxGeometry>
        </mxCell>
        <mxCell id="wzH2C587A3JeESDqqiCg-48" style="shape=tableRow;horizontal=0;startSize=0;swimlaneHead=0;swimlaneBody=0;strokeColor=inherit;top=0;left=0;bottom=0;right=0;collapsible=0;dropTarget=0;fillColor=none;points=[[0,0.5],[1,0.5]];portConstraint=eastwest;" vertex="1" parent="wzH2C587A3JeESDqqiCg-39">
          <mxGeometry y="106" width="310" height="28" as="geometry" />
        </mxCell>
        <mxCell id="wzH2C587A3JeESDqqiCg-49" value="AllExercises" style="shape=partialRectangle;html=1;whiteSpace=wrap;connectable=0;strokeColor=inherit;overflow=hidden;fillColor=none;top=0;left=0;bottom=0;right=0;pointerEvents=1;align=left;" vertex="1" parent="wzH2C587A3JeESDqqiCg-48">
          <mxGeometry width="160" height="28" as="geometry">
            <mxRectangle width="160" height="28" as="alternateBounds" />
          </mxGeometry>
        </mxCell>
        <mxCell id="wzH2C587A3JeESDqqiCg-50" value="VARCHAR" style="shape=partialRectangle;html=1;whiteSpace=wrap;connectable=0;strokeColor=inherit;overflow=hidden;fillColor=none;top=0;left=0;bottom=0;right=0;pointerEvents=1;" vertex="1" parent="wzH2C587A3JeESDqqiCg-48">
          <mxGeometry x="160" width="95" height="28" as="geometry">
            <mxRectangle width="95" height="28" as="alternateBounds" />
          </mxGeometry>
        </mxCell>
        <mxCell id="wzH2C587A3JeESDqqiCg-51" value="" style="shape=partialRectangle;html=1;whiteSpace=wrap;connectable=0;strokeColor=inherit;overflow=hidden;fillColor=none;top=0;left=0;bottom=0;right=0;pointerEvents=1;" vertex="1" parent="wzH2C587A3JeESDqqiCg-48">
          <mxGeometry x="255" width="55" height="28" as="geometry">
            <mxRectangle width="55" height="28" as="alternateBounds" />
          </mxGeometry>
        </mxCell>
        <mxCell id="wzH2C587A3JeESDqqiCg-52" style="shape=tableRow;horizontal=0;startSize=0;swimlaneHead=0;swimlaneBody=0;strokeColor=inherit;top=0;left=0;bottom=0;right=0;collapsible=0;dropTarget=0;fillColor=none;points=[[0,0.5],[1,0.5]];portConstraint=eastwest;" vertex="1" parent="wzH2C587A3JeESDqqiCg-39">
          <mxGeometry y="134" width="310" height="28" as="geometry" />
        </mxCell>
        <mxCell id="wzH2C587A3JeESDqqiCg-53" value="AllWrongExercises" style="shape=partialRectangle;html=1;whiteSpace=wrap;connectable=0;strokeColor=inherit;overflow=hidden;fillColor=none;top=0;left=0;bottom=0;right=0;pointerEvents=1;align=left;" vertex="1" parent="wzH2C587A3JeESDqqiCg-52">
          <mxGeometry width="160" height="28" as="geometry">
            <mxRectangle width="160" height="28" as="alternateBounds" />
          </mxGeometry>
        </mxCell>
        <mxCell id="wzH2C587A3JeESDqqiCg-54" value="VARCHAR" style="shape=partialRectangle;html=1;whiteSpace=wrap;connectable=0;strokeColor=inherit;overflow=hidden;fillColor=none;top=0;left=0;bottom=0;right=0;pointerEvents=1;" vertex="1" parent="wzH2C587A3JeESDqqiCg-52">
          <mxGeometry x="160" width="95" height="28" as="geometry">
            <mxRectangle width="95" height="28" as="alternateBounds" />
          </mxGeometry>
        </mxCell>
        <mxCell id="wzH2C587A3JeESDqqiCg-55" style="shape=partialRectangle;html=1;whiteSpace=wrap;connectable=0;strokeColor=inherit;overflow=hidden;fillColor=none;top=0;left=0;bottom=0;right=0;pointerEvents=1;" vertex="1" parent="wzH2C587A3JeESDqqiCg-52">
          <mxGeometry x="255" width="55" height="28" as="geometry">
            <mxRectangle width="55" height="28" as="alternateBounds" />
          </mxGeometry>
        </mxCell>
        <mxCell id="wzH2C587A3JeESDqqiCg-56" style="shape=tableRow;horizontal=0;startSize=0;swimlaneHead=0;swimlaneBody=0;strokeColor=inherit;top=0;left=0;bottom=0;right=0;collapsible=0;dropTarget=0;fillColor=none;points=[[0,0.5],[1,0.5]];portConstraint=eastwest;" vertex="1" parent="wzH2C587A3JeESDqqiCg-39">
          <mxGeometry y="162" width="310" height="28" as="geometry" />
        </mxCell>
        <mxCell id="wzH2C587A3JeESDqqiCg-57" value="AllRightExercises" style="shape=partialRectangle;html=1;whiteSpace=wrap;connectable=0;strokeColor=inherit;overflow=hidden;fillColor=none;top=0;left=0;bottom=0;right=0;pointerEvents=1;align=left;" vertex="1" parent="wzH2C587A3JeESDqqiCg-56">
          <mxGeometry width="160" height="28" as="geometry">
            <mxRectangle width="160" height="28" as="alternateBounds" />
          </mxGeometry>
        </mxCell>
        <mxCell id="wzH2C587A3JeESDqqiCg-58" value="VARCHAR" style="shape=partialRectangle;html=1;whiteSpace=wrap;connectable=0;strokeColor=inherit;overflow=hidden;fillColor=none;top=0;left=0;bottom=0;right=0;pointerEvents=1;" vertex="1" parent="wzH2C587A3JeESDqqiCg-56">
          <mxGeometry x="160" width="95" height="28" as="geometry">
            <mxRectangle width="95" height="28" as="alternateBounds" />
          </mxGeometry>
        </mxCell>
        <mxCell id="wzH2C587A3JeESDqqiCg-59" style="shape=partialRectangle;html=1;whiteSpace=wrap;connectable=0;strokeColor=inherit;overflow=hidden;fillColor=none;top=0;left=0;bottom=0;right=0;pointerEvents=1;" vertex="1" parent="wzH2C587A3JeESDqqiCg-56">
          <mxGeometry x="255" width="55" height="28" as="geometry">
            <mxRectangle width="55" height="28" as="alternateBounds" />
          </mxGeometry>
        </mxCell>
        <mxCell id="wzH2C587A3JeESDqqiCg-65" style="shape=tableRow;horizontal=0;startSize=0;swimlaneHead=0;swimlaneBody=0;strokeColor=inherit;top=0;left=0;bottom=0;right=0;collapsible=0;dropTarget=0;fillColor=none;points=[[0,0.5],[1,0.5]];portConstraint=eastwest;" vertex="1" parent="wzH2C587A3JeESDqqiCg-39">
          <mxGeometry y="190" width="310" height="28" as="geometry" />
        </mxCell>
        <mxCell id="wzH2C587A3JeESDqqiCg-66" value="TimeSpend" style="shape=partialRectangle;html=1;whiteSpace=wrap;connectable=0;strokeColor=inherit;overflow=hidden;fillColor=none;top=0;left=0;bottom=0;right=0;pointerEvents=1;align=left;" vertex="1" parent="wzH2C587A3JeESDqqiCg-65">
          <mxGeometry width="160" height="28" as="geometry">
            <mxRectangle width="160" height="28" as="alternateBounds" />
          </mxGeometry>
        </mxCell>
        <mxCell id="wzH2C587A3JeESDqqiCg-67" value="INTERVAL" style="shape=partialRectangle;html=1;whiteSpace=wrap;connectable=0;strokeColor=inherit;overflow=hidden;fillColor=none;top=0;left=0;bottom=0;right=0;pointerEvents=1;" vertex="1" parent="wzH2C587A3JeESDqqiCg-65">
          <mxGeometry x="160" width="95" height="28" as="geometry">
            <mxRectangle width="95" height="28" as="alternateBounds" />
          </mxGeometry>
        </mxCell>
        <mxCell id="wzH2C587A3JeESDqqiCg-68" style="shape=partialRectangle;html=1;whiteSpace=wrap;connectable=0;strokeColor=inherit;overflow=hidden;fillColor=none;top=0;left=0;bottom=0;right=0;pointerEvents=1;" vertex="1" parent="wzH2C587A3JeESDqqiCg-65">
          <mxGeometry x="255" width="55" height="28" as="geometry">
            <mxRectangle width="55" height="28" as="alternateBounds" />
          </mxGeometry>
        </mxCell>
        <mxCell id="wzH2C587A3JeESDqqiCg-69" style="edgeStyle=orthogonalEdgeStyle;rounded=0;orthogonalLoop=1;jettySize=auto;html=1;exitX=0;exitY=0.5;exitDx=0;exitDy=0;entryX=0;entryY=0.5;entryDx=0;entryDy=0;" edge="1" parent="1" source="wzH2C587A3JeESDqqiCg-65" target="wzH2C587A3JeESDqqiCg-61">
          <mxGeometry relative="1" as="geometry">
            <Array as="points">
              <mxPoint x="10" y="1024" />
              <mxPoint x="10" y="754" />
            </Array>
          </mxGeometry>
        </mxCell>
        <mxCell id="wzH2C587A3JeESDqqiCg-75" style="edgeStyle=orthogonalEdgeStyle;rounded=0;orthogonalLoop=1;jettySize=auto;html=1;exitX=1;exitY=0.5;exitDx=0;exitDy=0;" edge="1" parent="1" source="wzH2C587A3JeESDqqiCg-48" target="Oj5w3HKfONm3X5gUBiGD-122">
          <mxGeometry relative="1" as="geometry" />
        </mxCell>
        <mxCell id="wzH2C587A3JeESDqqiCg-76" style="edgeStyle=orthogonalEdgeStyle;rounded=0;orthogonalLoop=1;jettySize=auto;html=1;exitX=1;exitY=0.5;exitDx=0;exitDy=0;entryX=1;entryY=0.5;entryDx=0;entryDy=0;" edge="1" parent="1" source="wzH2C587A3JeESDqqiCg-52" target="Oj5w3HKfONm3X5gUBiGD-122">
          <mxGeometry relative="1" as="geometry" />
        </mxCell>
        <mxCell id="wzH2C587A3JeESDqqiCg-77" style="edgeStyle=orthogonalEdgeStyle;rounded=0;orthogonalLoop=1;jettySize=auto;html=1;exitX=1;exitY=0.5;exitDx=0;exitDy=0;entryX=1;entryY=0.5;entryDx=0;entryDy=0;" edge="1" parent="1" source="wzH2C587A3JeESDqqiCg-56" target="Oj5w3HKfONm3X5gUBiGD-122">
          <mxGeometry relative="1" as="geometry" />
        </mxCell>
        <mxCell id="wzH2C587A3JeESDqqiCg-78" style="edgeStyle=orthogonalEdgeStyle;rounded=0;orthogonalLoop=1;jettySize=auto;html=1;exitX=0;exitY=0.5;exitDx=0;exitDy=0;entryX=0;entryY=0.5;entryDx=0;entryDy=0;" edge="1" parent="1" source="wzH2C587A3JeESDqqiCg-70" target="wzH2C587A3JeESDqqiCg-44">
          <mxGeometry relative="1" as="geometry" />
        </mxCell>
      </root>
    </mxGraphModel>
  </diagram>
</mxfile>
